# xmcd
#
# Track frame offsets:
# 150
# 11104
# 23549
# 39324
# 53023
# 63169
# 73308
# 86171
# 100406
# 110594
# 132523
# 143509
# 153899
# 166037
# 180182
# 189510
# 203428
# 217371
# 228395
# 244351
#
# Disc length: 3442 seconds
#
#
# Revision: 0
# Processed by: cddbd v1.5.2PL0 Copyright (c) Steve Scherf et al.
# Submitted via: FreeRIP 2.951 
#
DISCID=0f0d7014
DTITLE=Canário and Passarinho - Burrão Respeito
DYEAR=2006
DGENRE=Country
TTITLE0=Burrão Respeito
TTITLE1=A Moça e o Caminhoneiro
TTITLE2=Chora na Rampa Negrão
TTITLE3=Vem meu Amor
TTITLE4=Adeus Maria
TTITLE5=Cantos de Amor
TTITLE6=Ninguem Gosta de mim
TTITLE7=A veia que o trem matou
TTITLE8=Chiquita linda
TTITLE9=Imitações das duplas
TTITLE10=Lua Saldosa
TTITLE11=Meu patrão perdeu a causa
TTITLE12=Você seria incapaz
TTITLE13=Os gringos
TTITLE14=Não tem coração de homem que aguenta
TTITLE15=Santos Reis do Amor
TTITLE16=Guia sem Odio
TTITLE17=Aviso
TTITLE18=Casa da Geni
TTITLE19=Cacilda
EXTD=NELDVD2007
EXTT0=
EXTT1=
EXTT2=
EXTT3=
EXTT4=
EXTT5=
EXTT6=
EXTT7=
EXTT8=
EXTT9=
EXTT10=
EXTT11=
EXTT12=
EXTT13=
EXTT14=
EXTT15=
EXTT16=
EXTT17=
EXTT18=
EXTT19=
PLAYORDER=
